<svg width="18" height="11" viewBox="0 0 18 11" fill="none" xmlns="http://www.w3.org/2000/svg">
<path fill-rule="evenodd" clip-rule="evenodd" d="M0.847954 1.12981C1.11585 0.861997 1.47915 0.711548 1.85795 0.711548C2.23676 0.711548 2.60006 0.861997 2.86795 1.12981L9.00081 7.26267L15.1337 1.12981C15.4031 0.869586 15.764 0.725595 16.1385 0.72885C16.5131 0.732105 16.8714 0.882346 17.1363 1.14722C17.4011 1.41208 17.5514 1.77039 17.5546 2.14495C17.5579 2.51952 17.4139 2.88038 17.1537 3.14981L10.0108 10.2927C9.74291 10.5605 9.37962 10.7109 9.00081 10.7109C8.62201 10.7109 8.25871 10.5605 7.99081 10.2927L0.847954 3.14981C0.580138 2.88192 0.429687 2.51862 0.429687 2.13981C0.429687 1.76101 0.580138 1.39771 0.847954 1.12981Z" fill="#121212"/>
</svg>
